<?xml version="1.0" encoding="UTF-8" standalone="no"?>
<svg width="19px" height="19px" viewBox="0 0 19 19" version="1.1"
  xmlns="http://www.w3.org/2000/svg"
  xmlns:xlink="http://www.w3.org/1999/xlink"
  xmlns:sketch="http://www.bohemiancoding.com/sketch/ns">
  <!-- Generator: Sketch 3.2.2 (9983) - http://www.bohemiancoding.com/sketch -->
  <title>1426687282_698627-icon-111-search</title>
  <desc>Created with Sketch.</desc>
  <defs></defs>
  <g id="Page-1" stroke="none" stroke-width="1" fill="none" fill-rule="evenodd" sketch:type="MSPage">
    <g id="1426687282_698627-icon-111-search" sketch:type="MSLayerGroup" fill="#222222">
      <g id="Page-1" sketch:type="MSShapeGroup">
        <g id="icon-111-search">
          <path d="M11.596146,13.3234187 C10.3958064,14.178733 8.92710872,14.6818182 7.34090909,14.6818182 C3.28663675,14.6818182 0,11.3951814 0,7.34090909 C0,3.28663675 3.28663675,0 7.34090909,0 C11.3951814,0 14.6818182,3.28663675 14.6818182,7.34090909 C14.6818182,8.92710872 14.178733,10.3958064 13.3234187,11.596146 L18.1466561,16.4193834 C18.6218297,16.894557 18.6178679,17.6548593 18.1464842,18.1262431 L18.1262431,18.1464842 C17.6560651,18.6166622 16.8906722,18.6179449 16.4193834,18.1466561 L11.596146,13.3234187 L11.596146,13.3234187 Z M7.34090909,12.9545455 C10.441235,12.9545455 12.9545455,10.441235 12.9545455,7.34090909 C12.9545455,4.24058314 10.441235,1.72727273 7.34090909,1.72727273 C4.24058314,1.72727273 1.72727273,4.24058314 1.72727273,7.34090909 C1.72727273,10.441235 4.24058314,12.9545455 7.34090909,12.9545455 L7.34090909,12.9545455 L7.34090909,12.9545455 Z" id="search"></path>
        </g>
      </g>
    </g>
  </g>
</svg>
